<?xml version="1.0" encoding="UTF-8"?>
<svg id="Layer_1" data-name="Layer 1" xmlns="http://www.w3.org/2000/svg" xmlns:xlink="http://www.w3.org/1999/xlink" viewBox="0 0 263.98 138.83">
  <defs>
    <style>
      .cls-1 {
        fill: url(#linear-gradient);
      }

      .cls-1, .cls-2 {
        stroke-width: 0px;
      }

      .cls-2 {
        fill: #5ccbee;
      }
    </style>
    <linearGradient id="linear-gradient" x1="75.21" y1="154.92" x2="171.34" y2="-.31" gradientTransform="translate(0 139.7) scale(1 -1)" gradientUnits="userSpaceOnUse">
      <stop offset="0" stop-color="#c4e5d7"/>
      <stop offset="1" stop-color="#51c8ec"/>
    </linearGradient>
  </defs>
  <path class="cls-1" d="m114.89,121.91c-10.92,9.78-25.11,15.44-39.65,16.7-1.14.09-2.29.15-3.44.19-1.15.03-2.3.04-3.44.02-1.15-.02-2.29-.07-3.44-.15-1.14-.08-2.29-.18-3.43-.32-1.14-.13-2.28-.29-3.41-.48s-2.26-.41-3.38-.65c-1.12-.24-2.24-.52-3.35-.82-1.11-.3-2.21-.62-3.3-.98-1.09-.35-2.18-.73-3.25-1.14-1.07-.41-2.14-.84-3.19-1.3-1.05-.46-2.09-.94-3.12-1.45-1.03-.51-2.04-1.04-3.05-1.6-1-.56-1.99-1.14-2.97-1.75-.97-.61-1.93-1.24-2.88-1.89-.94-.65-1.87-1.33-2.78-2.03-.91-.7-1.8-1.42-2.68-2.16-.86-.74-1.71-1.5-2.53-2.28-.82-.78-1.63-1.58-2.42-2.41-.79-.82-1.55-1.66-2.29-2.52s-1.47-1.74-2.17-2.63c-.7-.9-1.38-1.81-2.04-2.73-.66-.93-1.29-1.87-1.9-2.83-.61-.96-1.2-1.93-1.76-2.92-.56-.99-1.1-1.99-1.61-3-.51-1.01-1-2.04-1.46-3.08-.46-1.04-.9-2.09-1.31-3.15s-.79-2.13-1.15-3.21c-.36-1.08-.69-2.17-.99-3.26-.3-1.09-.58-2.2-.83-3.31-.25-1.11-.47-2.22-.67-3.34-.2-1.12-.36-2.24-.5-3.37-.14-1.13-.25-2.26-.34-3.39-.08-1.14-.14-2.29-.17-3.43-.03-1.15-.03-2.29,0-3.44.03-1.15.09-2.29.17-3.43.09-1.14.2-2.28.34-3.42.14-1.14.31-2.27.51-3.4.2-1.13.43-2.25.68-3.37.26-1.12.54-2.23.85-3.33.31-1.1.65-2.2,1.01-3.29.36-1.09.76-2.16,1.17-3.23.42-1.07.86-2.12,1.33-3.17.47-1.05.97-2.08,1.49-3.1.52-1.02,1.07-2.03,1.64-3.02.57-.99,1.17-1.97,1.79-2.94.62-.96,1.26-1.91,1.93-2.84.67-.93,1.36-1.85,2.07-2.75.71-.9,1.45-1.78,2.2-2.64C29.75,9.7,46.29,1.1,65.28.1c19.08-1.01,36.33,5.59,50.46,18.28,29.31.27,58.7-.43,87.99.19,7.51.16,15.56,1.96,20.83,7.71,6,6.54,6.1,14.85,5.79,23.14,2.7-.14,5.4-.26,8.11-.36,7.2-.22,13.97.5,19.41,5.83,4.18,4.1,6.28,9.79,6.11,15.61-.16,5.47-2.38,10.49-6.41,14.21-7.46,6.91-17.99,6.46-27.46,6.01,1.22,7.18,1.19,13.98-3.3,20.13-4.33,5.93-11.08,9.56-18.27,10.57-6.18.87-12.7.48-18.94.46l-29.52-.13c-15.06.21-30.12-.1-45.18.15Zm-5.29-14.97c24.45.44,48.95-.04,73.37.7,7.58.16,25.47,2.26,31.35-2.82,1.82-1.57,2.76-3.77,2.92-6.15.13-1.89-.45-3.63-1.76-5.01-1.66-1.75-4.02-2.6-6.35-3.03-7.13-1.31-24.43-.31-32.48-.34-9.53.11-42.18,1.37-49.65-.58-2.99-.78-5.85-2.7-8.03-4.86-2.03-2.01-3.65-4.47-5.01-6.97-3.4,12.81-10.25,23.68-21.96,30.43-10.15,5.85-23.19,7.41-34.49,4.34-10.97-2.98-21.46-10.83-27.14-20.72-2.67-4.65-4.05-9.63-4.92-14.89l-9.19-.03c1.09,13.15,8.43,26.1,18.4,34.58,11.37,9.67,25.57,13.41,40.34,12.19,13.97-1.16,24.61-7.35,34.59-16.83Zm21.08-43.94c-2.17,1.94-3.4,3.36-3.49,6.38-.06,1.89.38,3.78,1.77,5.14,1.06,1.04,2.29,1.59,3.76,1.77,5.28.63,10.99.19,16.32.2l32.52.02,38.84.15c7.49.06,15.24.5,22.71,0,.94-.06,1.87-.17,2.8-.34,1.7-.95,3.36-1.89,3.92-3.92.56-2.01.11-4.86-1.02-6.61-.97-1.49-2.31-2.24-4.03-2.53-4.79-.81-10.1-.42-14.95-.42l-24.73.03c-24.75.04-49.7-.56-74.43.13ZM65.69,15.15c-15.66,1.6-28.54,8.06-38.55,20.38-6.39,7.86-9.91,16.75-11.89,26.62,3.34-.02,6.69-.1,10.03-.24,1.79-11.78,8.57-21.85,18.1-28.84,9.55-7.01,20.72-9.74,32.42-7.89.74.12,1.48.25,2.22.4.74.15,1.47.32,2.2.51.73.19,1.45.4,2.17.62.72.22,1.43.47,2.14.73.71.26,1.41.54,2.1.83.69.3,1.38.61,2.05.94.68.33,1.34.67,2,1.04.66.36,1.31.74,1.95,1.13.64.39,1.27.8,1.89,1.23.62.43,1.23.87,1.83,1.32.6.46,1.19.93,1.76,1.41.58.48,1.14.98,1.69,1.49.55.51,1.09,1.04,1.61,1.58.53.54,1.04,1.09,1.53,1.65.5.56.98,1.14,1.45,1.73.47.59.92,1.19,1.36,1.8,4.11,5.71,6.49,12.21,8.09,19.01,1.61-4.22,3.48-7.39,7.28-10.02,2.49-1.41,5.13-2.98,7.99-3.43,5.06-.8,11.04-.2,16.18-.17,8.38.04,63.74,1.11,66.98-.37,2.16-.99,3.62-2.99,4.21-5.25.59-2.26.22-4.23-1.01-6.2-1.47-2.35-3.5-3.71-6.19-4.3-5.62-1.23-21.45-.22-28.4-.19-23.75.11-47.55.41-71.3.2-11.34-11.05-24.72-18.03-40.89-17.86-1,.01-2.03,0-3.02.13Zm4.89,85.13c9.1-.71,16.52-4.07,22.48-11.07.32-.37.63-.75.94-1.14.3-.39.6-.78.88-1.19.28-.4.56-.81.82-1.23.26-.42.51-.84.76-1.27.24-.43.47-.86.69-1.3.22-.44.43-.89.63-1.34.2-.45.38-.91.56-1.37s.34-.92.49-1.39c.15-.47.29-.94.42-1.41.13-.48.25-.95.35-1.43.11-.48.2-.96.28-1.45.08-.49.15-.97.21-1.46.06-.49.1-.98.14-1.47.03-.49.05-.98.06-1.48,0-.49,0-.98,0-1.48-.02-.49-.04-.98-.08-1.48-.66-8.12-4.41-15.85-10.74-21.07-5.62-4.64-13.64-7.59-20.95-7.13-9.22.98-17.11,4.26-23.03,11.65-5.13,6.4-7.73,14.72-6.66,22.91,1.07,8.22,5.78,15.82,12.43,20.71,5.82,4.28,12.22,5.73,19.33,5.87Z"/>
  <path class="cls-2" d="m176.66,90.3c7.62-1.81,16.36-.09,24.15-.45,4.75-.22,9.83-2,14.51-1.62,2.24,1.43,4.68,4.51,5.39,7.09.07.26.07.53.11.79-1.36.93-2.04,1.21-2.75,2.72.1,1.23.19,1.88.9,2.9,1.44-.39,3.06-1.13,4.42-.27,1.79,1.13,2.7,3.44,4.92,3.8l.55-.54c-.09-2.46-.01-2.87,1.59-4.88-.01-1.01.21-1.04-.57-1.78-.74-.71-1.49-1.33-2.29-1.97l.07-1.04.74-.32,1.3.77c.31-1.6.16-2.84-.09-4.44l.37-.69.13.37c1.22,7.18,1.19,13.98-3.3,20.13-4.33,5.93-11.08,9.56-18.27,10.57-6.18.87-12.7.48-18.94.46l-29.52-.13.35-.26c5.01-.29,10.25-1.11,15.27-.69,5.5.46,11.97.66,17.44-.07-.83-.37-1.35-.35-1.73-1.21,3.82-1.49,8.47-6.26,10.43-9.88l-.36-.53c-5.41-1.31-12.4-.51-18.06-.97l-.44-.51c7.58.16,25.47,2.26,31.35-2.82,1.82-1.57,2.76-3.77,2.92-6.15.13-1.89-.45-3.63-1.76-5.01-1.66-1.75-4.02-2.6-6.35-3.03-7.13-1.31-24.43-.31-32.48-.34Z"/>
</svg>