<svg width="540" height="41" viewBox="0 0 540 41" fill="none" xmlns="http://www.w3.org/2000/svg">
<path d="M315.665 32.1938L308.287 40.1213C308.127 40.2935 307.934 40.4309 307.719 40.5249C307.504 40.619 307.272 40.6676 307.037 40.6679H272.06C271.894 40.6678 271.73 40.619 271.591 40.5273C271.451 40.4357 271.341 40.3054 271.275 40.1522C271.208 39.9989 271.187 39.8296 271.215 39.6648C271.243 39.5 271.318 39.3469 271.432 39.2242L278.802 31.2968C278.961 31.1246 279.155 30.9872 279.37 30.8932C279.585 30.7992 279.816 30.7505 280.051 30.7502L315.028 30.7502C315.196 30.7467 315.362 30.7932 315.504 30.8839C315.646 30.9745 315.758 31.1052 315.826 31.2594C315.895 31.4138 315.915 31.5848 315.887 31.7511C315.858 31.9174 315.781 32.0714 315.665 32.1938ZM308.287 16.2263C308.126 16.0549 307.933 15.9181 307.718 15.8241C307.503 15.7301 307.272 15.681 307.037 15.6798L272.06 15.6798C271.894 15.6799 271.73 15.7287 271.591 15.8203C271.451 15.9119 271.341 16.0423 271.275 16.1955C271.208 16.3487 271.187 16.518 271.215 16.6829C271.243 16.8477 271.318 17.0008 271.432 17.1234L278.802 25.055C278.962 25.2264 279.155 25.3633 279.37 25.4573C279.585 25.5512 279.817 25.6003 280.051 25.6016L315.028 25.6016C315.195 25.6007 315.357 25.5512 315.496 25.4594C315.635 25.3674 315.744 25.237 315.81 25.084C315.877 24.9309 315.897 24.7619 315.869 24.5974C315.841 24.433 315.766 24.2803 315.653 24.158L308.287 16.2263ZM272.06 10.5311L307.037 10.5311C307.272 10.5309 307.504 10.4822 307.719 10.3881C307.934 10.2941 308.127 10.1567 308.287 9.98451L315.665 2.05709C315.781 1.93464 315.858 1.7806 315.887 1.61433C315.915 1.44807 315.895 1.27702 315.826 1.1227C315.758 0.96838 315.646 0.837693 315.504 0.747081C315.362 0.656469 315.196 0.60998 315.028 0.613464L280.051 0.613464C279.816 0.613711 279.585 0.662371 279.37 0.75641C279.155 0.850448 278.961 0.987847 278.802 1.16004L271.432 9.08745C271.318 9.21008 271.243 9.3632 271.215 9.52801C271.187 9.69282 271.208 9.86217 271.275 10.0154C271.341 10.1686 271.451 10.299 271.591 10.3906C271.73 10.4822 271.894 10.531 272.06 10.5311Z" fill="url(#paint0_linear_461_1841)"/>
<path d="M358.302 17.5494H339.59V11.3744L363.166 11.3744V5.19931L339.527 5.19931C338.719 5.19493 337.919 5.34997 337.171 5.6556C336.423 5.96126 335.743 6.4115 335.169 6.98065C334.595 7.54979 334.138 8.22671 333.825 8.97269C333.512 9.7187 333.348 10.5192 333.344 11.3285V17.587C333.347 18.3969 333.509 19.1984 333.822 19.9453C334.135 20.6923 334.591 21.3702 335.165 21.9402C335.74 22.5102 336.421 22.9612 337.169 23.2674C337.917 23.5736 338.719 23.7289 339.527 23.7245H358.265V29.8995H333.789V36.0746H358.302C359.11 36.079 359.91 35.9239 360.658 35.6183C361.406 35.3126 362.087 34.8624 362.661 34.2932C363.235 33.7241 363.692 33.0472 364.005 32.3012C364.318 31.5552 364.482 30.7547 364.486 29.9454V23.6869C364.482 22.8769 364.32 22.0756 364.007 21.3286C363.695 20.5816 363.238 19.9037 362.664 19.3337C362.089 18.7637 361.409 18.3127 360.66 18.0065C359.912 17.7004 359.111 17.545 358.302 17.5494Z" fill="white"/>
<path d="M394.558 5.19942L375.774 5.19942C374.965 5.19283 374.163 5.34625 373.413 5.65091C372.663 5.95557 371.981 6.40544 371.405 6.97483C370.829 7.54419 370.371 8.22182 370.057 8.96892C369.742 9.71602 369.578 10.5179 369.574 11.3286V29.9455C369.578 30.7562 369.742 31.5581 370.057 32.3052C370.371 33.0523 370.829 33.7299 371.405 34.2993C371.981 34.8687 372.663 35.3186 373.413 35.6232C374.163 35.9279 374.965 36.0813 375.774 36.0747H394.558C395.366 36.0791 396.166 35.924 396.914 35.6184C397.662 35.3128 398.342 34.8625 398.916 34.2934C399.49 33.7242 399.947 33.0473 400.26 32.3013C400.573 31.5553 400.737 30.7548 400.741 29.9455V11.3286C400.737 10.5193 400.573 9.71881 400.26 8.9728C399.947 8.22683 399.49 7.54991 398.916 6.98076C398.342 6.41161 397.662 5.96137 396.914 5.65571C396.166 5.35009 395.366 5.19504 394.558 5.19942ZM394.512 29.8996H375.82V11.3745H394.504L394.512 29.8996Z" fill="white"/>
<path d="M460.345 5.19967L442.023 5.19967C441.215 5.19529 440.415 5.35034 439.667 5.65596C438.919 5.96163 438.239 6.41186 437.665 6.98101C437.091 7.55016 436.634 8.22708 436.321 8.97305C436.008 9.71906 435.844 10.5196 435.84 11.3288V36.075H442.086V25.932H460.324V36.075H466.57V11.3288C466.565 10.516 466.401 9.7121 466.085 8.96333C465.769 8.2146 465.309 7.53585 464.73 6.96612C464.152 6.39643 463.466 5.94707 462.713 5.6439C461.961 5.34074 461.156 5.18979 460.345 5.19967ZM460.299 19.757H442.061V11.3747H460.299V19.757Z" fill="white"/>
<path d="M533.284 5.19931L514.963 5.19931C514.155 5.19493 513.355 5.34997 512.607 5.6556C511.859 5.96126 511.179 6.4115 510.604 6.98065C510.03 7.54979 509.573 8.22671 509.26 8.97269C508.947 9.7187 508.783 10.5192 508.779 11.3285V36.0746H515.025V25.9316H533.222V36.0746H539.467V11.3285C539.463 10.5192 539.3 9.7187 538.987 8.97269C538.673 8.22671 538.217 7.54979 537.642 6.98065C537.068 6.4115 536.388 5.96126 535.64 5.6556C534.892 5.34997 534.092 5.19493 533.284 5.19931ZM533.222 19.7566H514.984V11.3744H533.222V19.7566Z" fill="white"/>
<path d="M496.997 29.8995H494.498L485.567 7.78612C485.26 7.02321 484.734 6.36936 484.054 5.90849C483.375 5.44757 482.573 5.20061 481.752 5.19927L476.21 5.19927C475.671 5.19652 475.138 5.30012 474.639 5.5041C474.14 5.70813 473.687 6.00854 473.304 6.38822C472.921 6.76795 472.617 7.21943 472.408 7.71703C472.199 8.21458 472.091 8.74847 472.088 9.28816V36.0746H478.334V11.3743H480.832L489.76 33.4877C490.071 34.2492 490.602 34.9003 491.284 35.3581C491.966 35.816 492.769 36.0595 493.59 36.0579H499.133C499.671 36.0606 500.205 35.9571 500.704 35.753C501.203 35.549 501.656 35.2486 502.039 34.8689C502.422 34.4892 502.726 34.0377 502.935 33.5402C503.143 33.0426 503.252 32.5087 503.255 31.969V5.19927L496.997 5.19927V29.8995Z" fill="white"/>
<path d="M412.506 5.19922H406.26V29.9453C406.264 30.7564 406.428 31.5586 406.743 32.306C407.057 33.0534 407.516 33.7311 408.092 34.3006C408.668 34.87 409.351 35.3198 410.101 35.6242C410.852 35.9286 411.655 36.0816 412.464 36.0745H431.202V29.8994H412.506V5.19922Z" fill="white"/>
<circle cx="91.1889" cy="19.0463" r="18.1451" transform="rotate(-180 91.1889 19.0463)" fill="#FB6111"/>
<circle cx="54.8939" cy="19.0463" r="18.1451" transform="rotate(-180 54.8939 19.0463)" fill="#FC9058"/>
<circle cx="18.6088" cy="19.0463" r="18.1451" transform="rotate(-180 18.6088 19.0463)" fill="#FDB088"/>
<path fill-rule="evenodd" clip-rule="evenodd" d="M187.529 0.902344V10.9513C187.406 10.2499 187.199 9.60684 186.907 9.02226C186.294 7.79722 185.359 6.86189 184.101 6.21627C182.859 5.57064 181.336 5.24783 179.532 5.24783C177.893 5.24783 176.444 5.52925 175.186 6.09211C173.945 6.63841 172.968 7.4413 172.256 8.50079C171.889 9.05143 171.619 9.66898 171.445 10.3534C171.35 9.44709 171.148 8.67228 170.838 8.02899C170.391 7.08538 169.745 6.39009 168.901 5.94312C168.073 5.47959 167.08 5.24783 165.921 5.24783C164.812 5.24783 163.827 5.45476 162.966 5.86862C162.105 6.26593 161.402 6.96122 160.855 7.95449H160.607C160.193 7.02744 159.581 6.3487 158.77 5.91828C157.958 5.47131 157.006 5.24783 155.914 5.24783C154.887 5.24783 153.985 5.4382 153.207 5.81896C152.446 6.19971 151.85 6.75429 151.419 7.48269H151.171L150.923 5.49614H145.683V19.0046H151.171V12.0517C151.171 11.5385 151.27 11.0833 151.469 10.686C151.668 10.2721 151.949 9.94931 152.313 9.71755C152.694 9.46923 153.158 9.34507 153.704 9.34507C154.3 9.34507 154.755 9.47751 155.07 9.74238C155.384 9.9907 155.591 10.3383 155.69 10.7853C155.806 11.2157 155.864 11.7124 155.864 12.2752V19.0046H161.327V12.0517C161.327 11.522 161.427 11.0585 161.625 10.6612C161.824 10.2473 162.114 9.92448 162.494 9.69271C162.875 9.46095 163.339 9.34507 163.885 9.34507C164.464 9.34507 164.903 9.47751 165.201 9.74238C165.515 9.9907 165.731 10.3383 165.847 10.7853C165.962 11.2323 166.02 11.7455 166.02 12.3249V19.0046H171.508V14.5158C171.677 15.0812 171.918 15.6008 172.231 16.0745C172.926 17.1009 173.895 17.8872 175.136 18.4335C176.395 18.9798 177.876 19.253 179.581 19.253C181.071 19.253 182.404 19.0626 183.579 18.6818C184.755 18.2845 185.707 17.7299 186.435 17.0181C186.968 16.4968 187.333 15.9178 187.529 15.281V19.0047H193.017V15.4786L194.507 14.1377L195.277 15.2799L198.058 19.0047H204.862L198.48 10.9096L204.762 5.49622H197.934L194.631 8.50087L193.017 10.0653V0.902344H187.529ZM176.701 13.4671H187.529V14.5597H182.511C182.363 14.8743 182.031 15.1392 181.518 15.3544C181.005 15.553 180.409 15.6523 179.73 15.6523C179.101 15.6523 178.563 15.5696 178.116 15.404C177.669 15.2219 177.322 14.9653 177.073 14.6342C176.842 14.3031 176.717 13.9141 176.701 13.4671ZM182.209 10.6115H176.608C176.701 10.2731 176.848 9.98336 177.049 9.74238C177.313 9.4444 177.653 9.22919 178.067 9.09675C178.48 8.94776 178.961 8.87327 179.507 8.87327C180.119 8.87327 180.616 8.95604 180.997 9.12158C181.394 9.28713 181.692 9.51889 181.891 9.81687C182.05 10.0553 182.156 10.3201 182.209 10.6115Z" fill="white"/>
<path fill-rule="evenodd" clip-rule="evenodd" d="M208.74 19.2531C207.764 19.2531 206.87 19.0958 206.059 18.7813C205.264 18.4502 204.577 17.9784 203.997 17.3659C203.418 16.7533 202.971 16.0167 202.657 15.1558C202.342 14.295 202.185 13.3348 202.185 12.2753C202.185 10.8351 202.458 9.59351 203.004 8.55057C203.55 7.50764 204.312 6.70474 205.289 6.14189C206.282 5.57903 207.433 5.29761 208.74 5.29761C209.552 5.29761 210.255 5.38038 210.851 5.54593C211.447 5.71147 211.952 5.94323 212.366 6.24122C212.796 6.52264 213.136 6.86201 213.384 7.25932H213.583L213.732 5.49626H218.946V19.0047H213.458V17.2914H213.26C212.846 17.9039 212.233 18.384 211.422 18.7316C210.611 19.0792 209.717 19.2531 208.74 19.2531ZM210.503 15.1558C211.116 15.1558 211.637 15.0399 212.068 14.8082C212.515 14.5764 212.854 14.2536 213.086 13.8397C213.318 13.4259 213.434 12.9541 213.434 12.4243V12.1263C213.434 11.58 213.318 11.1082 213.086 10.7109C212.854 10.2971 212.515 9.97426 212.068 9.7425C211.637 9.51073 211.116 9.39485 210.503 9.39485C209.957 9.39485 209.469 9.50246 209.038 9.71766C208.624 9.93287 208.293 10.2557 208.045 10.6861C207.813 11.1165 207.697 11.6463 207.697 12.2753C207.697 12.9044 207.813 13.4342 208.045 13.8646C208.277 14.295 208.6 14.6178 209.013 14.833C209.444 15.0482 209.941 15.1558 210.503 15.1558Z" fill="white"/>
<path fill-rule="evenodd" clip-rule="evenodd" d="M117.035 36.5786C117.648 36.8435 118.36 36.9759 119.171 36.9759H123.69V33.5618C123.778 33.7281 123.873 33.8894 123.977 34.0457C124.672 35.0721 125.64 35.8584 126.882 36.4047C128.14 36.951 129.622 37.2242 131.327 37.2242C132.817 37.2242 134.149 37.0338 135.325 36.653C136.5 36.2557 137.452 35.7011 138.181 34.9893C138.712 34.4694 139.077 33.8921 139.273 33.2575C139.584 34.0625 140.015 34.7557 140.565 35.3371C141.144 35.9496 141.831 36.4214 142.626 36.7525C143.437 37.067 144.331 37.2243 145.308 37.2243C146.285 37.2243 147.179 37.0505 147.99 36.7028C148.801 36.3552 149.413 35.8751 149.827 35.2626H150.026V36.976H155.514V23.4675H150.299L150.15 25.2305H149.951C149.703 24.8332 149.364 24.4939 148.933 24.2124C148.519 23.9144 148.015 23.6827 147.419 23.5171C146.823 23.3516 146.119 23.2688 145.308 23.2688C144 23.2688 142.85 23.5502 141.856 24.1131C140.88 24.676 140.118 25.4788 139.572 26.5218C139.344 26.956 139.164 27.4246 139.031 27.9276C138.927 27.6012 138.8 27.2898 138.652 26.9935C138.04 25.7684 137.104 24.8331 135.846 24.1875C134.605 23.5418 133.082 23.219 131.277 23.219C129.638 23.219 128.19 23.5005 126.932 24.0633C125.69 24.6096 124.713 25.4125 124.002 26.472C123.889 26.6414 123.785 26.8172 123.69 26.9993V23.4674H120.487V19.3454L115.098 20.3635V23.4674H112.789V27.5647H115.098V33.2512C115.098 34.0955 115.264 34.7907 115.595 35.337C115.943 35.8833 116.423 36.2972 117.035 36.5786ZM123.434 27.5647H120.487V31.4385C120.487 31.7861 120.561 32.0261 120.71 32.1586C120.876 32.291 121.141 32.3572 121.505 32.3572H123.217C123.045 31.733 122.959 31.0542 122.959 30.3209C122.959 29.2928 123.117 28.374 123.434 27.5647ZM128.446 31.4384H138.824C138.871 31.8173 138.942 32.1815 139.036 32.531H134.257C134.108 32.8455 133.777 33.1104 133.264 33.3256C132.751 33.5242 132.155 33.6235 131.476 33.6235C130.847 33.6235 130.309 33.5408 129.862 33.3752C129.415 33.1931 129.067 32.9365 128.819 32.6054C128.587 32.2744 128.463 31.8853 128.446 31.4384ZM133.954 28.5827H128.354C128.447 28.2443 128.593 27.9546 128.794 27.7136C129.059 27.4156 129.398 27.2004 129.812 27.068C130.226 26.919 130.706 26.8445 131.252 26.8445C131.865 26.8445 132.362 26.9272 132.742 27.0928C133.14 27.2583 133.438 27.4901 133.636 27.7881C133.795 28.0265 133.901 28.2913 133.954 28.5827ZM148.635 32.7794C148.205 33.0112 147.683 33.127 147.071 33.127C146.508 33.127 146.011 33.0194 145.581 32.8042C145.167 32.589 144.844 32.2662 144.613 31.8358C144.381 31.4054 144.265 30.8756 144.265 30.2465C144.265 29.6175 144.381 29.0877 144.613 28.6573C144.861 28.2269 145.192 27.9041 145.606 27.6889C146.036 27.4737 146.525 27.3661 147.071 27.3661C147.683 27.3661 148.205 27.4819 148.635 27.7137C149.082 27.9455 149.422 28.2683 149.653 28.6821C149.885 29.0795 150.001 29.5513 150.001 30.0976V30.3955C150.001 30.9253 149.885 31.3971 149.653 31.8109C149.422 32.2248 149.082 32.5476 148.635 32.7794Z" fill="white"/>
<path d="M155.918 23.4674V36.9758H161.405V30.0229C161.405 29.5098 161.505 29.0545 161.703 28.6572C161.902 28.2433 162.183 27.9205 162.548 27.6888C162.928 27.4404 163.392 27.3163 163.938 27.3163C164.534 27.3163 164.989 27.4487 165.304 27.7136C165.618 27.9619 165.825 28.3095 165.925 28.7565C166.041 29.1869 166.099 29.6836 166.099 30.2464V36.9758H171.562V30.0229C171.562 29.4932 171.661 29.0297 171.86 28.6324C172.058 28.2185 172.348 27.8957 172.729 27.6639C173.109 27.4322 173.573 27.3163 174.119 27.3163C174.699 27.3163 175.137 27.4487 175.435 27.7136C175.75 27.9619 175.965 28.3095 176.081 28.7565C176.197 29.2035 176.255 29.7167 176.255 30.2961V36.9758H181.743V29.6008C181.743 28.1274 181.519 26.9272 181.072 26.0002C180.625 25.0566 179.98 24.3613 179.135 23.9143C178.308 23.4508 177.314 23.219 176.155 23.219C175.046 23.219 174.061 23.426 173.2 23.8398C172.34 24.2371 171.636 24.9324 171.09 25.9257H170.841C170.428 24.9986 169.815 24.3199 169.004 23.8895C168.193 23.4425 167.241 23.219 166.148 23.219C165.122 23.219 164.22 23.4094 163.442 23.7902C162.68 24.1709 162.084 24.7255 161.654 25.4539H161.405L161.157 23.4674H155.918Z" fill="white"/>
<path d="M134.993 19.253C133.818 19.253 132.792 19.0544 131.914 18.6571C131.037 18.2598 130.358 17.5976 129.878 16.6705C129.398 15.7435 129.158 14.5019 129.158 12.9458V6.73318L124.311 10.9096L130.693 19.0047H123.889L121.108 15.2799L120.338 14.1377L118.848 15.4786V19.0047H113.36V0.902344H118.848V10.0653L120.462 8.50087L123.765 5.49622L134.646 5.49623V11.9525C134.646 12.565 134.704 13.1196 134.819 13.6162C134.952 14.0963 135.184 14.4771 135.515 14.7585C135.862 15.0234 136.342 15.1558 136.955 15.1558C137.551 15.1558 138.056 15.0316 138.47 14.7833C138.884 14.535 139.198 14.1873 139.413 13.7404C139.645 13.2934 139.761 12.7885 139.761 12.2256V5.49623H145.249V19.0047H139.984L139.761 17.043H139.538C139.157 17.7052 138.544 18.2432 137.7 18.6571C136.872 19.0544 135.97 19.253 134.993 19.253Z" fill="white"/>
<defs>
<linearGradient id="paint0_linear_461_1841" x1="274.975" y1="41.6234" x2="311.734" y2="0.26565" gradientUnits="userSpaceOnUse">
<stop offset="0.08" stop-color="#9945FF"/>
<stop offset="0.3" stop-color="#8752F3"/>
<stop offset="0.5" stop-color="#5497D5"/>
<stop offset="0.6" stop-color="#43B4CA"/>
<stop offset="0.72" stop-color="#28E0B9"/>
<stop offset="0.97" stop-color="#19FB9B"/>
</linearGradient>
</defs>
</svg>
