<?xml version="1.0" encoding="UTF-8"?>
<svg id="Layer_1" data-name="Layer 1" xmlns="http://www.w3.org/2000/svg" xmlns:xlink="http://www.w3.org/1999/xlink" viewBox="0 0 918.74 169.65">
  <defs>
    <style>
      .cls-1 {
        fill: url(#linear-gradient);
      }

      .cls-1, .cls-2, .cls-3, .cls-4, .cls-5 {
        stroke-width: 0px;
      }

      .cls-2 {
        fill: #66c4aa;
      }

      .cls-3 {
        fill: #5ccbee;
      }

      .cls-4 {
        fill: url(#linear-gradient-2);
      }

      .cls-5 {
        fill: url(#linear-gradient-3);
      }
    </style>
    <linearGradient id="linear-gradient" x1="75.21" y1="171.23" x2="171.34" y2="16" gradientTransform="translate(0 172.88) scale(1 -1)" gradientUnits="userSpaceOnUse">
      <stop offset="0" stop-color="#c4e5d7"/>
      <stop offset="1" stop-color="#51c8ec"/>
    </linearGradient>
    <linearGradient id="linear-gradient-2" x1="851.94" y1="87.11" x2="838.94" y2="173.83" gradientTransform="translate(0 172.88) scale(1 -1)" gradientUnits="userSpaceOnUse">
      <stop offset="0" stop-color="#6bc6ac"/>
      <stop offset="1" stop-color="#89cfbd"/>
    </linearGradient>
    <linearGradient id="linear-gradient-3" x1="407.89" y1="-73.26" x2="702.09" y2="220.94" gradientUnits="userSpaceOnUse">
      <stop offset=".21" stop-color="#b8d6c9"/>
      <stop offset=".35" stop-color="#afd4cc"/>
      <stop offset=".59" stop-color="#96d1d6"/>
      <stop offset=".88" stop-color="#6fcde5"/>
      <stop offset="1" stop-color="#5dcbed"/>
    </linearGradient>
  </defs>
  <path class="cls-1" d="m114.89,138.79c-10.92,9.78-25.11,15.44-39.65,16.7-1.14.09-2.29.15-3.44.19-1.15.03-2.3.04-3.44.02-1.15-.02-2.29-.07-3.44-.15-1.14-.08-2.29-.18-3.43-.32-1.14-.13-2.28-.29-3.41-.48s-2.26-.41-3.38-.65c-1.12-.24-2.24-.52-3.35-.82-1.11-.3-2.21-.62-3.3-.98-1.09-.35-2.18-.73-3.25-1.14-1.07-.41-2.14-.84-3.19-1.3-1.05-.46-2.09-.94-3.12-1.45-1.03-.51-2.04-1.04-3.05-1.6-1-.56-1.99-1.14-2.97-1.75-.97-.61-1.93-1.24-2.88-1.89-.94-.65-1.87-1.33-2.78-2.03-.91-.7-1.8-1.42-2.68-2.16-.86-.74-1.71-1.5-2.53-2.28-.82-.78-1.63-1.58-2.42-2.41-.79-.82-1.55-1.66-2.29-2.52s-1.47-1.74-2.17-2.63c-.7-.9-1.38-1.81-2.04-2.73-.66-.93-1.29-1.87-1.9-2.83-.61-.96-1.2-1.93-1.76-2.92-.56-.99-1.1-1.99-1.61-3-.51-1.01-1-2.04-1.46-3.08-.46-1.04-.9-2.09-1.31-3.15s-.79-2.13-1.15-3.21c-.36-1.08-.69-2.17-.99-3.26-.3-1.09-.58-2.2-.83-3.31-.25-1.11-.47-2.22-.67-3.34-.2-1.12-.36-2.24-.5-3.37-.14-1.13-.25-2.26-.34-3.39-.08-1.14-.14-2.29-.17-3.43-.03-1.15-.03-2.29,0-3.44.03-1.15.09-2.29.17-3.43.09-1.14.2-2.28.34-3.42.14-1.14.31-2.27.51-3.4.2-1.13.43-2.25.68-3.37.26-1.12.54-2.23.85-3.33.31-1.1.65-2.2,1.01-3.29.36-1.09.76-2.16,1.17-3.23.42-1.07.86-2.12,1.33-3.17.47-1.05.97-2.08,1.49-3.1.52-1.02,1.07-2.03,1.64-3.02.57-.99,1.17-1.97,1.79-2.94.62-.96,1.26-1.91,1.93-2.84.67-.93,1.36-1.85,2.07-2.75.71-.9,1.45-1.78,2.2-2.64,12.52-14.17,29.06-22.76,48.05-23.76,19.08-1.01,36.33,5.59,50.46,18.28,29.31.27,58.7-.43,87.99.19,7.51.16,15.56,1.96,20.83,7.71,6,6.54,6.1,14.85,5.79,23.14,2.7-.14,5.4-.26,8.11-.36,7.2-.22,13.97.5,19.41,5.83,4.18,4.1,6.28,9.79,6.11,15.61-.16,5.47-2.38,10.49-6.41,14.21-7.46,6.91-17.99,6.46-27.46,6.01,1.22,7.18,1.19,13.98-3.3,20.13-4.33,5.93-11.08,9.56-18.27,10.57-6.18.87-12.7.48-18.94.46l-29.52-.13c-15.06.21-30.12-.1-45.18.15Zm-5.29-14.97c24.45.44,48.95-.04,73.37.7,7.58.16,25.47,2.26,31.35-2.82,1.82-1.57,2.76-3.77,2.92-6.15.13-1.89-.45-3.63-1.76-5.01-1.66-1.75-4.02-2.6-6.35-3.03-7.13-1.31-24.43-.31-32.48-.34-9.53.11-42.18,1.37-49.65-.58-2.99-.78-5.85-2.7-8.03-4.86-2.03-2.01-3.65-4.47-5.01-6.97-3.4,12.81-10.25,23.68-21.96,30.43-10.15,5.85-23.19,7.41-34.49,4.34-10.97-2.98-21.46-10.83-27.14-20.72-2.67-4.65-4.05-9.63-4.92-14.89l-9.19-.03c1.09,13.15,8.43,26.1,18.4,34.58,11.37,9.67,25.57,13.41,40.34,12.19,13.97-1.16,24.61-7.35,34.59-16.83Zm21.08-43.94c-2.17,1.94-3.4,3.36-3.49,6.38-.06,1.89.38,3.78,1.77,5.14,1.06,1.04,2.29,1.59,3.76,1.77,5.28.63,10.99.19,16.32.2l32.52.02,38.84.15c7.49.06,15.24.5,22.71,0,.94-.06,1.87-.17,2.8-.34,1.7-.95,3.36-1.89,3.92-3.92.56-2.01.11-4.86-1.02-6.61-.97-1.49-2.31-2.24-4.03-2.53-4.79-.81-10.1-.42-14.95-.42l-24.73.03c-24.75.04-49.7-.56-74.43.13Zm-64.99-47.87c-15.66,1.6-28.54,8.06-38.55,20.38-6.39,7.86-9.91,16.75-11.89,26.62,3.34-.02,6.69-.1,10.03-.24,1.79-11.78,8.57-21.85,18.1-28.84,9.55-7.01,20.72-9.74,32.42-7.89.74.12,1.48.25,2.22.4.74.15,1.47.32,2.2.51.73.19,1.45.4,2.17.62.72.22,1.43.47,2.14.73.71.26,1.41.54,2.1.83.69.3,1.38.61,2.05.94.68.33,1.34.67,2,1.04.66.36,1.31.74,1.95,1.13.64.39,1.27.8,1.89,1.23.62.43,1.23.87,1.83,1.32.6.46,1.19.93,1.76,1.41.58.48,1.14.98,1.69,1.49.55.51,1.09,1.04,1.61,1.58.53.54,1.04,1.09,1.53,1.65.5.56.98,1.14,1.45,1.73.47.59.92,1.19,1.36,1.8,4.11,5.71,6.49,12.21,8.09,19.01,1.61-4.22,3.48-7.39,7.28-10.02,2.49-1.41,5.13-2.98,7.99-3.43,5.06-.8,11.04-.2,16.18-.17,8.38.04,63.74,1.11,66.98-.37,2.16-.99,3.62-2.99,4.21-5.25.59-2.26.22-4.23-1.01-6.2-1.47-2.35-3.5-3.71-6.19-4.3-5.62-1.23-21.45-.22-28.4-.19-23.75.11-47.55.41-71.3.2-11.34-11.05-24.72-18.03-40.89-17.86-1,.01-2.03,0-3.02.13Zm4.89,85.13c9.1-.71,16.52-4.07,22.48-11.07.32-.37.63-.75.94-1.14.3-.39.6-.78.88-1.19.28-.4.56-.81.82-1.23.26-.42.51-.84.76-1.27.24-.43.47-.86.69-1.3.22-.44.43-.89.63-1.34.2-.45.38-.91.56-1.37s.34-.92.49-1.39c.15-.47.29-.94.42-1.41.13-.48.25-.95.35-1.43.11-.48.2-.96.28-1.45.08-.49.15-.97.21-1.46.06-.49.1-.98.14-1.47.03-.49.05-.98.06-1.48,0-.49,0-.98,0-1.48-.02-.49-.04-.98-.08-1.48-.66-8.12-4.41-15.85-10.74-21.07-5.62-4.64-13.64-7.59-20.95-7.13-9.22.98-17.11,4.26-23.03,11.65-5.13,6.4-7.73,14.72-6.66,22.91,1.07,8.22,5.78,15.82,12.43,20.71,5.82,4.28,12.22,5.73,19.33,5.87Z"/>
  <path class="cls-3" d="m176.66,107.18c7.62-1.81,16.36-.09,24.15-.45,4.75-.22,9.83-2,14.51-1.62,2.24,1.43,4.68,4.51,5.39,7.09.07.26.07.53.11.79-1.36.93-2.04,1.21-2.75,2.72.1,1.23.19,1.88.9,2.9,1.44-.39,3.06-1.13,4.42-.27,1.79,1.13,2.7,3.44,4.92,3.8l.55-.54c-.09-2.46-.01-2.87,1.59-4.88-.01-1.01.21-1.04-.57-1.78-.74-.71-1.49-1.33-2.29-1.97l.07-1.04.74-.32,1.3.77c.31-1.6.16-2.84-.09-4.44l.37-.69.13.37c1.22,7.18,1.19,13.98-3.3,20.13-4.33,5.93-11.08,9.56-18.27,10.57-6.18.87-12.7.48-18.94.46l-29.52-.13.35-.26c5.01-.29,10.25-1.11,15.27-.69,5.5.46,11.97.66,17.44-.07-.83-.37-1.35-.35-1.73-1.21,3.82-1.49,8.47-6.26,10.43-9.88l-.36-.53c-5.41-1.31-12.4-.51-18.06-.97l-.44-.51c7.58.16,25.47,2.26,31.35-2.82,1.82-1.57,2.76-3.77,2.92-6.15.13-1.89-.45-3.63-1.76-5.01-1.66-1.75-4.02-2.6-6.35-3.03-7.13-1.31-24.43-.31-32.48-.34Z"/>
  <path class="cls-2" d="m911.98,87.84c1.55.18,3.34.5,4.58,1.53,1.39,1.16,1.86,2.86,2.06,4.58,1.28,11.01-8.55,32.01-15.23,40.76-13.96,18.32-33.71,31.09-56.74,34.15-25.06,3.32-47.4-3.89-67.14-19.14-1.38-1.02-3.04-2.21-3.97-3.67-.99-1.56-1.23-3.71-.76-5.47.38-1.44,1.37-2.64,2.77-3.2,1.77-.71,3.79-.25,5.42.6,2.69,1.39,5,3.96,7.43,5.78,1.55,1.16,3.14,2.26,4.78,3.29,1.64,1.03,3.31,2,5.02,2.9,1.71.9,3.46,1.73,5.23,2.5,1.78.76,3.58,1.46,5.42,2.08,18.29,6.17,39.55,4.44,56.77-4.14,16.46-8.21,31.13-23.62,36.43-41.47,1.65-5.55,1.61-11.89,3.6-17.22.83-2.21,2.26-2.92,4.33-3.84Z"/>
  <path class="cls-4" d="m828.22.53c19.11-2.65,40.42,4.98,55.75,15.96,16.06,11.51,31.31,32.51,34.2,52.42.35,2.43.42,5.87-1.31,7.85-.85.97-1.69,1.52-3.02,1.47-1.93-.07-4.63-1.68-5.67-3.29-1.81-2.83-2.59-7.86-3.54-11.08-3.23-10.95-8.48-19.93-15.94-28.54-7.71-8.03-16.3-13.65-26.54-18.02-21.12-9.03-46.08-7.11-65.97,4.29-4.81,2.76-9.54,8.35-14.7,10.09-1.56.53-3.63.46-5.08-.35-1.1-.61-1.66-1.8-1.83-3.01-.38-2.82,1.09-5.55,2.91-7.59,2.25-2.51,5.72-4.32,8.55-6.1,13.29-8.33,26.57-12.91,42.19-14.1Z"/>
  <path class="cls-5" d="m534.61,39.83c1.36-.07,3.18-.31,4.47.17,2.21.82,3.34,2.59,4.47,4.56,2.18,3.81,3.53,8.28,5.03,12.39,4.11,11.21,7.35,23.13,12.51,33.89,4.96-12.93,8.7-26.36,13.54-39.36,1.57-4.22,3.59-9.4,8.07-11.26,1.45-.6,2.94-.69,4.4-.03,2.4,1.08,4.16,3.64,5.37,5.88,2.41,4.47,3.81,9.65,5.39,14.47,3.2,9.75,6.03,19.74,9.99,29.21,3.29-9.53,6.2-19.24,9.3-28.84,1.41-4.36,2.58-9.19,4.64-13.29,1.41-2.82,3.7-5.9,6.89-6.78,1.87-.51,3.76.05,5.38,1.03,3,1.82,3.76,5.07,4.54,8.23-1.47,5.84-3.76,11.46-5.86,17.09-3.61,9.57-6.86,19.3-10.28,28.95-1.74,4.91-3.33,10.28-5.69,14.92-1.33,2.61-3.8,3.92-6.54,4.69-2.98.83-6.08.59-8.73-1.09-1.82-1.16-3.18-2.75-4.15-4.67-3.4-6.73-11.56-32.6-13.41-40.26-3.51,8.53-13.52,42.49-19.4,46.49-1.91,1.3-4.35,1.83-6.6,1.27-2.55-.63-4.11-2.28-5.46-4.45-3.12-5.02-4.96-11.46-7.09-16.98-4.62-11.67-9.03-23.42-13.22-35.26-1.16-3.28-2.96-6.64-3.81-9.98-.09-.34-.15-.69-.2-1.04s-.06-.71-.06-1.06c0-.35.03-.71.08-1.06.05-.35.12-.7.22-1.04.92-3.32,3.41-5.1,6.2-6.81Zm-94.6.6c2.64.05,5.42.35,7.52,2.13,2.03,1.72,2.88,4.38,3.09,6.96.56,6.98-.22,14.41-.17,21.46l.17,24.17c.03,4.69.35,9.57-.15,14.23-.18,1.69-.61,3.27-1.76,4.57-1.68,1.91-4.22,2.9-6.74,2.88-2.02-.01-3.96-.57-5.56-1.81-3.22-2.49-5.88-6.37-8.63-9.42-9.79-10.88-19.02-22.76-29.38-33.04-.11,6.74,1.51,35.9-.85,39.86-1.83,3.08-5,3.79-8.28,4.43-.3-.05-.59-.1-.89-.16-3.62-.68-5.28-2.35-7.27-5.34-1.32-8.83-.54-18.51-.51-27.46.05-12.44-.24-25,.45-37.42.77-1.28,1.61-2.54,2.75-3.53,1.8-1.56,4.02-2.5,6.42-2.36,1.81.11,3.28.69,4.71,1.82,5.69,4.48,10.6,11.55,15.31,17.07l22.63,26.12c.03-12.99-.5-25.98-.31-38.97,2.02-3.37,3.77-4.84,7.47-6.2Zm224.51,0c2.95-.43,6.07-.48,8.88.65,5.34,2.14,7.68,8.33,9.92,13.21l15.35,33.89c2.59,5.68,6.26,12.05,7.93,18.05.44,1.59.3,3.23-.34,4.75-.89,2.13-2.73,3.74-4.89,4.5-2.12.74-4.57.71-6.6-.3-4.84-2.41-6.49-9.26-8.16-13.99-4.81-.21-9.66-.11-14.47-.14l-20.98-.26c-1.97,4.6-4.11,11.8-8.48,14.58-1.68,1.07-3.74,1.48-5.68.98-2.5-.63-4.68-2.39-5.92-4.63-1.11-2-1.21-3.83-.47-5.97,3.26-9.56,8.54-19,12.66-28.28,3.8-8.57,9.41-24.12,14.17-31.49,1.71-2.64,4.39-4.15,7.1-5.56Zm-7.76,46.96c4.61.1,9.22.14,13.83.13l9.67.07c-3.88-9.5-7.6-19.11-11.74-28.49-3.84,9.45-8.05,18.8-11.76,28.29Zm127.9-45.01c6.46-.37,40.21-1.32,43.55,1.42,1.53,1.25,2.23,3.43,2.38,5.33.17,2.2.2,4.87-1.43,6.56-4.43,4.6-26.27,2.33-33.05,2.23l.07,13.47c6.31-.06,23.14-2.29,27.56,1.68,1.55,1.39,2.18,3.34,2.26,5.38.09,2.26-.44,4.57-2.11,6.18-4.18,4.07-21.52,2.3-27.55,2.22l-.03,8.6.07,4.88c8.61.08,17.61-.83,26.16-.15,2.88.23,5.92.93,7.77,3.34,1.49,1.94,1.6,4.35,1.23,6.69-.35,2.17-1.26,4.47-3.26,5.63-2.4,1.4-39.12,1.61-43.16.61-4.2-1.04-6.45-3.74-8.62-7.29-.44-8.26-.08-16.68-.08-24.95,0-11.97-.22-23.97.05-35.94,2.46-3.26,4.38-4.51,8.18-5.9Zm-314.76-2.55c.47-.03.93-.05,1.4-.07,2.52-.08,4.58.37,6.41,2.22,5.35,5.41,3.18,24.41,3.04,32.08,5.42-5.67,31-33.13,36.87-33.26,2.01-.04,3.81,1.04,5.21,2.4,1.32,1.29,2.47,2.61,2.43,4.55-.14,6.56-18.44,22.02-23.47,26.92,7.43,10.05,15.55,19.08,24.23,28.07,1.99,2.25,3.47,3.96,3.32,7.13-.1,2.05-.84,3.99-2.4,5.36-1.76,1.55-4.04,2.2-6.36,2.05-2.38-.15-4.47-1.21-6.29-2.69-3.19-2.58-5.75-6.35-8.34-9.53-5.36-6.58-10.58-13.38-16.29-19.64-2.63,2.95-5.36,5.81-8.1,8.65-.62,4.83-.04,9.69-.71,14.49-.39,2.78-1.45,5.59-3.8,7.28-1.94,1.39-4.81,1.82-7.13,1.34-2.96-.63-4.64-2.93-6.29-5.26-1.64-9.69-.52-25.41-.52-35.61,0-7.87-1.12-22.28.46-29.56.76-3.49,3.46-5.22,6.33-6.93Zm234.62.98c1.9-.13,3.9-.09,5.66.7,1.8.81,3.05,2.27,3.99,3.96,3.19,5.72,5.16,12.73,7.47,18.87,3.74,10.15,7.72,20.2,11.94,30.15,5.14-9.66,9.81-20.98,13.96-31.15,2.3-5.64,4.24-12.11,7.44-17.26,1.39-2.24,3.42-4.41,5.92-5.39,2.02-.79,3.98-.7,5.96.16,2.1.91,4.98,2.89,5.73,5.15,1.39,4.19-4.63,14.09-6.37,18.01-3.86,9.18-8.27,18.2-12.4,27.26-2.92,6.4-5.57,13.35-9.14,19.39-1.18,1.99-2.82,4.43-4.87,5.61-3.14,1.8-7.42,1.97-10.8.82-3.6-1.22-4.94-3.58-6.59-6.82-5.57-10.9-9.67-22.75-14.31-34.07-3.01-7.36-6.88-14.73-9.22-22.32-.67-2.19-1.55-4.76-.71-7,1.15-3.04,3.54-4.71,6.36-6.08Zm-407.25.15c2.44.05,5.07.31,6.88,2.15,1.42,1.45,1.8,3.65,2.04,5.58.71,5.69.23,11.88.22,17.64l-.06,33.8c6.19.04,26.25-1.09,30.52,1.22,1.8.97,3.2,2.51,3.76,4.51.6,2.14.18,4.61-.89,6.54-1.29,2.31-2.93,3.16-5.38,3.94-7.02.05-36.05,1.31-40.52-.84-1.74-.84-3.56-3.05-4.1-4.91-1.1-3.82-.75-53.8-.39-60.58.1-1.82.11-4.04,1.08-5.62,1.44-2.33,4.34-2.95,6.82-3.43Zm57.61-.06c2.05-.1,4.06,0,6.02.7,2.37.86,4.82,2.78,5.57,5.3,1.07,3.59.84,62.3-.36,64.85-1.15,2.43-3.83,3.6-6.15,4.55-1.57.18-3.17.28-4.74,0-2.21-.38-4.43-1.55-5.58-3.54-1.04-1.79-1.05-4.53-1.17-6.57-.42-7.35-1.12-54.59.37-59.05,1.04-3.11,3.28-4.73,6.05-6.24Z"/>
  <path class="cls-2" d="m890.97,85.88c.41.04.82.08,1.23.14,2.12.29,3.77,1.11,4.99,2.91,1.62,2.37.97,6.03.35,8.62-3.67,15.49-13.29,31.88-27.12,40.34-.99,0-2.13.09-3.07-.29-1.55-.62-3.47-2.49-4.1-4.05-.49-1.22-.28-2.27.33-3.4,2.09-3.86,10.37-9.76,13.81-14.21,4.68-6.08,6.41-12.11,7.54-19.6.34-2.25.56-5.36,1.73-7.34,1.13-1.9,2.31-2.44,4.31-3.12Z"/>
  <path class="cls-2" d="m883.59,65.88c-2.87-6.88-6.32-12.92-12.08-17.8-1.91-1.62-4.51-3.15-5.94-5.19-1.02-1.44-1.5-3.26-.88-4.98.51-1.42,1.8-2.41,3.21-2.83,2.26-.67,4.53.01,6.51,1.14,10.76,6.14,18.8,21.22,21.79,32.87.81,3.16.84,5.24-.49,8.2-9.78.04-5.83-7.17-12.12-11.42Z"/>
  <path class="cls-2" d="m856.65,50.81c1.09-.03,2.23-.07,3.3.12,4.78.83,9.68,7.65,12.09,11.59,2.03,3.33,4.84,8.71,3.49,12.67-.73,2.16-1.94,2.84-3.85,3.85-1.43-.09-3.29-.18-4.47-1.1-2.77-2.16-3.01-6.96-4.71-9.91-2.42-4.22-9.28-6.47-10.34-11.35.6-2.56,2.53-4.26,4.49-5.86Z"/>
  <path class="cls-2" d="m848.9,128.82c1.28-.09,2.56-.17,3.84.03,2.25.34,4.36,1.5,5.63,3.43,1.06,1.61,1.34,3.56.92,5.42-.76,3.33-2.96,5.11-5.72,6.84-.95.17-1.94.37-2.91.31-2.11-.12-4.34-1.3-5.62-2.98-1.43-1.87-1.79-4.3-1.4-6.57.57-3.29,2.62-4.74,5.26-6.49Z"/>
  <path class="cls-2" d="m855.09,108.28c3.69-.19,9.03-.15,11.86,2.62.86.85,1.39,1.94,1.24,3.18-.32,2.59-3.03,4.24-4.99,5.49-1.35.48-2.85.88-4.28,1.04-2.19.24-4.73-.58-6.37-2.06-1.21-1.09-1.72-2.45-1.66-4.09.11-2.7,2.3-4.59,4.2-6.18Z"/>
  <path class="cls-2" d="m829.45,131.87c1.49.03,3.2.22,4.56.88,1.73.84,3.03,2.42,3.65,4.22.08.22.14.44.2.66.05.22.1.45.13.68.03.23.05.46.05.69,0,.23,0,.46-.02.69-.02.23-.05.46-.09.69-.04.23-.1.45-.16.67-.07.22-.14.44-.23.65-.09.21-.19.42-.3.62-1.18,2.21-2.94,3.25-5.26,3.98-.48-.07-.97-.13-1.45-.23-2.37-.49-4.66-1.96-5.91-4.06-.11-.18-.21-.37-.3-.56-.09-.19-.17-.39-.24-.59-.07-.2-.13-.4-.17-.61-.05-.21-.08-.41-.11-.62-.03-.21-.04-.42-.05-.63,0-.21,0-.42.02-.63.02-.21.04-.42.08-.63.04-.21.09-.41.15-.61.8-2.8,3.04-3.99,5.45-5.27Z"/>
</svg>